<svg width="32" height="31" viewBox="0 0 32 31" fill="none" xmlns="http://www.w3.org/2000/svg">
<path d="M17.9444 30.9375H10.9166V10.3125H17.9444V13.75C19.4424 11.8856 21.7142 10.7741 24.1376 10.7198C28.4959 10.7435 32.0126 14.213 32 18.4766V30.9375H24.9722V19.3359C24.6911 17.4155 23.0075 15.9905 21.0243 15.9947C20.1569 16.0215 19.3381 16.3931 18.7569 17.0236C18.1757 17.6541 17.8823 18.4891 17.9444 19.3359V30.9375ZM7.40276 30.9375H0.375V10.3125H7.40276V30.9375ZM3.88888 6.875C1.94822 6.875 0.375 5.33598 0.375 3.4375C0.375 1.53902 1.94822 0 3.88888 0C5.82954 0 7.40276 1.53902 7.40276 3.4375C7.40276 4.34918 7.03255 5.22352 6.37357 5.86818C5.71459 6.51284 4.82082 6.875 3.88888 6.875Z" fill="#232926"/>
</svg>
