<svg width="32" height="33" viewBox="0 0 32 33" fill="none" xmlns="http://www.w3.org/2000/svg">
<path d="M15.9287 32.6875C11.609 32.6875 11.0998 32.6642 9.41408 32.589C8.09951 32.5449 6.80196 32.2722 5.57728 31.7828C3.45838 30.9414 1.78288 29.2313 0.959085 27.0692C0.497803 25.8152 0.249003 24.4902 0.223334 23.151C0.125 21.4347 0.125 20.8722 0.125 16.499C0.125 12.0792 0.147828 11.5633 0.223334 9.85233C0.249564 8.51497 0.498356 7.19188 0.959085 5.93957C1.78199 3.77453 3.4602 2.06295 5.58255 1.2242C6.80935 0.751589 8.10649 0.497084 9.41759 0.471744C11.0945 0.375 11.6459 0.375 15.9287 0.375C20.2835 0.375 20.784 0.39829 22.4434 0.471744C23.7579 0.497303 25.0584 0.751781 26.2889 1.2242C28.4107 2.0639 30.0886 3.77515 30.9124 5.93957C31.3815 7.21013 31.6316 8.5539 31.6517 9.91145C31.75 11.6278 31.75 12.1885 31.75 16.5599C31.75 20.9313 31.7254 21.5046 31.6517 23.2012C31.6255 24.5417 31.3761 25.8678 30.9142 27.1229C30.0883 29.2866 28.4103 30.9973 26.2889 31.8383C25.0602 32.308 23.7623 32.5618 22.4504 32.589C20.7734 32.6875 20.2238 32.6875 15.9287 32.6875ZM15.869 3.21103C11.5739 3.21103 11.1279 3.23253 9.45095 3.30957C8.45002 3.3231 7.45877 3.51155 6.52024 3.86674C5.13435 4.40781 4.0377 5.52212 3.50173 6.93389C3.15091 7.90186 2.96617 8.92426 2.95562 9.95624C2.86256 11.6923 2.86256 12.1473 2.86256 16.499C2.86256 20.7987 2.87836 21.3201 2.95562 23.0453C2.97134 24.0669 3.15597 25.0784 3.50173 26.0372C4.03849 27.4481 5.13494 28.5615 6.52024 29.1026C7.45813 29.4601 8.44979 29.6487 9.45095 29.6598C11.1507 29.7601 11.5985 29.7601 15.869 29.7601C20.1764 29.7601 20.6224 29.7386 22.2853 29.6598C23.2869 29.6473 24.2789 29.4589 25.2178 29.1026C26.5953 28.5569 27.6848 27.4459 28.2205 26.0408C28.5706 25.072 28.7554 24.0492 28.7666 23.0167H28.7859C28.8614 21.304 28.8614 20.8471 28.8614 16.4703C28.8614 12.0936 28.8421 11.6331 28.7666 9.9222C28.7509 8.90182 28.5662 7.89149 28.2205 6.93389C27.686 5.52675 26.5964 4.41369 25.2178 3.86674C24.2791 3.50976 23.287 3.32125 22.2853 3.30957C20.5873 3.21103 20.143 3.21103 15.869 3.21103ZM15.9287 24.7742C12.645 24.7764 9.68347 22.76 8.42522 19.6655C7.16697 16.571 7.85988 13.0079 10.1808 10.6379C12.5017 8.26786 15.9934 7.55783 19.0276 8.8389C22.0617 10.12 24.0406 13.1398 24.0413 16.49C24.0365 21.0604 20.4083 24.7653 15.9287 24.7742ZM15.9287 11.1118C13.0193 11.1118 10.6608 13.5181 10.6608 16.4865C10.6608 19.4548 13.0193 21.8611 15.9287 21.8611C18.8381 21.8611 21.1966 19.4548 21.1966 16.4865C21.1899 13.521 18.8353 11.1187 15.9287 11.1118ZM24.3574 9.83442C23.3133 9.83046 22.4695 8.96477 22.4715 7.89955C22.4734 6.83433 23.3203 5.97183 24.3644 5.97183C25.4085 5.97183 26.2554 6.83431 26.2573 7.89953C26.2578 8.41346 26.0577 8.90643 25.7011 9.2695C25.3446 9.63256 24.8611 9.83584 24.3574 9.83442Z" fill="#232926"/>
</svg>
