<svg width="38" height="31" viewBox="0 0 38 31" fill="none" xmlns="http://www.w3.org/2000/svg">
<path d="M33.3584 4.94069C34.9789 3.96493 36.1914 2.42847 36.7695 0.618197C35.2468 1.52822 33.5808 2.16926 31.8436 2.51361C29.4351 -0.0527052 25.619 -0.67723 22.5277 0.989006C19.4364 2.65524 17.8352 6.19973 18.6188 9.64191C12.3817 9.3265 6.57076 6.35892 2.63194 1.4776C0.576352 5.04888 1.6268 9.6142 5.03251 11.9106C3.80097 11.8707 2.59674 11.5348 1.52024 10.931C1.52024 10.9638 1.52024 10.9966 1.52024 11.0293C1.52095 14.7494 4.12393 17.9538 7.74399 18.6911C6.60167 19.0041 5.40345 19.0502 4.24076 18.8258C5.25883 22.0072 8.16978 24.1867 11.4876 24.2517C8.7397 26.4241 5.34609 27.6022 1.85285 27.5965C1.23367 27.5974 0.614982 27.5615 0 27.489C3.54732 29.7851 7.67597 31.0038 11.8926 30.9995C17.7588 31.0401 23.3965 28.7106 27.5445 24.5322C31.6926 20.3537 34.0048 14.675 33.964 8.76612C33.964 8.42746 33.9562 8.09062 33.9405 7.7556C35.4598 6.64967 36.771 5.27963 37.8125 3.70986C36.3971 4.34178 34.8958 4.75665 33.3584 4.94069Z" fill="#232926"/>
</svg>
