<svg width="34" height="33" viewBox="0 0 34 33" fill="none" xmlns="http://www.w3.org/2000/svg">
<path d="M0.0625 16.5993C0.0644198 24.7663 5.96666 31.7201 13.9831 33V21.3972H9.79716V16.5993H13.988V12.947C13.8007 11.2163 14.3882 9.49149 15.5912 8.24029C16.7942 6.98909 18.488 6.3412 20.2132 6.47234C21.4516 6.49246 22.6868 6.60343 23.9091 6.80437V10.8867H21.8236C21.1056 10.7921 20.3838 11.0307 19.8614 11.5353C19.3391 12.0399 19.0728 12.7558 19.1375 13.4815V16.5993H23.7095L22.9786 21.3988H19.1375V33C27.8071 31.6214 33.8865 23.6546 32.9714 14.8712C32.0564 6.08779 24.4673 -0.43736 15.702 0.0229181C6.93676 0.483196 0.0638933 7.76777 0.0625 16.5993Z" fill="#232926"/>
</svg>
